<svg id="visual" viewBox="0 0 960 540" width="960" height="540" xmlns="http://www.w3.org/2000/svg" xmlns:xlink="http://www.w3.org/1999/xlink" version="1.1"><g stroke-width="1" stroke-linejoin="bevel"><path d="M546.6 287L539.6 362L668.7 308Z" fill="#161616" stroke="#161616"></path><path d="M539.6 362L684.7 427L668.7 308Z" fill="#2b2b2b" stroke="#2b2b2b"></path><path d="M684.7 427L795.9 359L668.7 308Z" fill="#373737" stroke="#373737"></path><path d="M663.7 106L558.6 134L668.7 308Z" fill="#434343" stroke="#434343"></path><path d="M668.7 308L558.6 134L546.6 287Z" fill="#373737" stroke="#373737"></path><path d="M392.4 252L415.4 430L539.6 362Z" fill="#262626" stroke="#262626"></path><path d="M392.4 252L539.6 362L546.6 287Z" fill="#1b1b1b" stroke="#1b1b1b"></path><path d="M539.6 362L566.6 540L684.7 427Z" fill="#161616" stroke="#161616"></path><path d="M415.4 430L566.6 540L539.6 362Z" fill="#4f4f4f" stroke="#4f4f4f"></path><path d="M684.7 427L824.9 540L795.9 359Z" fill="#1b1b1b" stroke="#1b1b1b"></path><path d="M434.4 126L392.4 252L546.6 287Z" fill="#262626" stroke="#262626"></path><path d="M795.9 359L809.9 238L668.7 308Z" fill="#3d3d3d" stroke="#3d3d3d"></path><path d="M809.9 238L663.7 106L668.7 308Z" fill="#161616" stroke="#161616"></path><path d="M566.6 540L711.7 540L684.7 427Z" fill="#1b1b1b" stroke="#1b1b1b"></path><path d="M558.6 134L434.4 126L546.6 287Z" fill="#2b2b2b" stroke="#2b2b2b"></path><path d="M574.6 0L434.4 126L558.6 134Z" fill="#202020" stroke="#202020"></path><path d="M809.9 238L781.9 99L663.7 106Z" fill="#2b2b2b" stroke="#2b2b2b"></path><path d="M434.4 126L315.3 227L392.4 252Z" fill="#494949" stroke="#494949"></path><path d="M392.4 252L237.3 361L415.4 430Z" fill="#2b2b2b" stroke="#2b2b2b"></path><path d="M711.7 540L824.9 540L684.7 427Z" fill="#262626" stroke="#262626"></path><path d="M795.9 359L960 280L809.9 238Z" fill="#3d3d3d" stroke="#3d3d3d"></path><path d="M245.3 540L377.4 540L415.4 430Z" fill="#373737" stroke="#373737"></path><path d="M415.4 430L377.4 540L566.6 540Z" fill="#161616" stroke="#161616"></path><path d="M689.7 0L574.6 0L663.7 106Z" fill="#373737" stroke="#373737"></path><path d="M663.7 106L574.6 0L558.6 134Z" fill="#161616" stroke="#161616"></path><path d="M434.4 126L276.3 163L315.3 227Z" fill="#3d3d3d" stroke="#3d3d3d"></path><path d="M781.9 99L689.7 0L663.7 106Z" fill="#161616" stroke="#161616"></path><path d="M824.9 540L960 380L795.9 359Z" fill="#1b1b1b" stroke="#1b1b1b"></path><path d="M809.9 238L960 91L781.9 99Z" fill="#1b1b1b" stroke="#1b1b1b"></path><path d="M960 380L960 280L795.9 359Z" fill="#202020" stroke="#202020"></path><path d="M781.9 99L827.9 0L689.7 0Z" fill="#373737" stroke="#373737"></path><path d="M399.4 0L276.3 163L434.4 126Z" fill="#202020" stroke="#202020"></path><path d="M315.3 227L237.3 361L392.4 252Z" fill="#262626" stroke="#262626"></path><path d="M156.1 313L237.3 361L315.3 227Z" fill="#313131" stroke="#313131"></path><path d="M574.6 0L399.4 0L434.4 126Z" fill="#373737" stroke="#373737"></path><path d="M960 91L827.9 0L781.9 99Z" fill="#494949" stroke="#494949"></path><path d="M237.3 361L245.3 540L415.4 430Z" fill="#373737" stroke="#373737"></path><path d="M824.9 540L960 540L960 380Z" fill="#2b2b2b" stroke="#2b2b2b"></path><path d="M960 280L960 91L809.9 238Z" fill="#3d3d3d" stroke="#3d3d3d"></path><path d="M95.1 129L156.1 313L276.3 163Z" fill="#1b1b1b" stroke="#1b1b1b"></path><path d="M276.3 163L156.1 313L315.3 227Z" fill="#373737" stroke="#373737"></path><path d="M237.3 361L177.1 540L245.3 540Z" fill="#2b2b2b" stroke="#2b2b2b"></path><path d="M104.1 361L177.1 540L237.3 361Z" fill="#4f4f4f" stroke="#4f4f4f"></path><path d="M960 91L960 0L827.9 0Z" fill="#161616" stroke="#161616"></path><path d="M399.4 0L238.3 0L276.3 163Z" fill="#494949" stroke="#494949"></path><path d="M156.1 313L104.1 361L237.3 361Z" fill="#262626" stroke="#262626"></path><path d="M0 286L104.1 361L156.1 313Z" fill="#161616" stroke="#161616"></path><path d="M238.3 0L95.1 129L276.3 163Z" fill="#202020" stroke="#202020"></path><path d="M95.1 129L0 286L156.1 313Z" fill="#373737" stroke="#373737"></path><path d="M104.1 361L0 540L177.1 540Z" fill="#373737" stroke="#373737"></path><path d="M238.3 0L96.1 0L95.1 129Z" fill="#202020" stroke="#202020"></path><path d="M95.1 129L0 173L0 286Z" fill="#434343" stroke="#434343"></path><path d="M0 286L0 393L104.1 361Z" fill="#313131" stroke="#313131"></path><path d="M0 0L0 173L95.1 129Z" fill="#373737" stroke="#373737"></path><path d="M0 393L0 540L104.1 361Z" fill="#434343" stroke="#434343"></path><path d="M96.1 0L0 0L95.1 129Z" fill="#161616" stroke="#161616"></path></g></svg>