<svg version="1.2" xmlns="http://www.w3.org/2000/svg" viewBox="0 0 512 512" width="512" height="512">
	<title>otter(2)</title>
	<style>
		.s0 { opacity: 1;fill: #cbcbcb } 
		.s1 { fill: #e5e5e5 } 
	</style>
	<g id="Layer 1">
		<path id="Path 0" class="s0" d="m111 256l2-33 9-22 19-27 31-25 38-15 82-6 30-7 18-10 15-14 28-45 11-10 79-38 20 3 11 14-2 25-4 11-31 35-12 23-16 80-36 46-21 41-13 35 10 18v15l-7 13-10 1-57-23-4-16 8-24 1-20h-3l-73 38-10 11 2 13 20 17 21-12 17 2 10 7 1 9-24 56-6 7-13 3-68-31-17-4-13 18-45 41-69 45-23 7-8-5v-9l58-47 21-25 17-30 9-31-2-81z"/>
		<path id="Path 1" class="s1" d="m477 25l5 1-4 23-27 29-16 30-17 80-34 43-23 46-16 44 2 10 9 7-33-12 8-29-1-27-13-11h-13l-84 43-21 23 6 25 24 25 19 10h9l11-14-15 37-61-25-20-5h-16l-23 32-17 18-17 12 22-32 13-29 4-20-2-128 2-14 19-29 23-19 30-13 92-8 19-4 23-10 27-23 34-51z"/>
		<path id="Path 2" class="s0" d="m426 55l10 1 5 11-6 8h-10l-5-5v-9z"/>
	</g>
</svg>