<svg version="1.2" xmlns="http://www.w3.org/2000/svg" viewBox="0 0 542 542" width="542" height="542"><style>.a{fill:#dfdfdf}</style><path fill-rule="evenodd" class="a" d="m538.7 276.1c5.6 3.4 6.7 11.2 2.8 16.2-3.4 4.5-9.6 5.6-14.6 2.8-9.5-6.1-26.3-15.6-48.2-24-5.6-2.3-11.2 1.6-11.2 7.8 0.6 2.2 1.7 4.5 3.4 6.2 15.7 12.8 26.3 25.2 32.5 32.4 3.3 4 2.2 9-2.3 12.4 0 0-2.2 1.1-4.4 2.8-4 2.2-8.4 1.6-11.2-1.7-0.6-0.6-0.6-0.6-1.2-1.1-5-6.2-15.1-2.3-14.5 5.6 3.3 62.1 9.5 115.9 14.5 157.3 2.8 23-12.8 44.3-35.8 48.2h-1.7c-24.1 4.5-47-12.3-49.8-37-7.9-67.2-17.9-169.7-18.5-221.2 0-30.8-16.8-55.4-44.2-69.4v3.3c0 24.7-34.2 42.6-51.6 50.4 0 1.7-0.5 2.8-0.5 4.5 2.8 12.3 15.1 21.9 29.7 21.9 16.8 0 30.8-12.4 30.8-27.5h22.4c0 20.7-12.9 38.1-32 45.9-4.4 26.4-30.2 46.5-61 46.5-30.8 0-56-20.1-61-45.9-19.6-7.3-34.2-25.2-34.2-46.5h22.4c0 15.1 14 27.5 30.8 27.5 14.6 0 26.9-9.6 29.7-21.9-0.6-1.7-1.1-3.3-2.2-5-17.4-7.9-50.4-25.8-50.4-50.4v-1.7c-25.8 14-40.9 37.5-40.9 67.2-0.6 50.4-10.7 154-19.1 221.8-2.8 24.6-25.2 41.4-49.8 37.5h-1.1c-23-3.4-38.7-24.7-35.9-47.6 5.6-44.3 11.2-98 14.6-156.8 0.6-7.9-9-11.8-14-5.6-2.8 3.3-7.3 3.9-10.6 1.7l-5.7-4c-3.9-2.8-4.4-8.4-1.6-11.7 5.6-7.3 16.2-19.1 31.9-32 1.7-1.1 2.8-3.3 2.8-5.6v-1.1c0.6-5.6-5-10.1-10.6-7.8-21.3 8.4-38.1 17.9-47.1 23.5-4.5 3.4-11.2 1.7-14.5-2.8-4-5-2.8-12.3 2.8-15.7 12.3-7.3 35.2-20.1 65.5-30.8 3.3-1.1 5.6-3.9 5.6-7.3v-15.6c0-23 3.3-44.3 10.6-63.9-31.9-16.8-49.3-54.3-38.1-92.4 6.2-21.8 22.4-39.7 43.7-48.7 37.5-15.7 77.3 0 96.9 30.2 3.4 5.1 9 7.3 14 5.6 20.2-5.6 42-8.9 65.5-8.9 23.5 0 45.4 2.8 65.5 8.9 5.6 1.7 11.2-1.1 14-5.6 16.3-26.3 47.1-40.8 79.6-35.2 33 5.6 59.3 33.6 63.8 67.2 3.9 33.6-12.9 64.4-41.4 79.5 6.7 19.6 10.6 40.9 10.6 63.8v15.1c0 4 2.2 6.8 5.6 7.9 30.8 10.6 53.8 23.5 68.9 30.8zm-415-20.2c-6.1 1.1-12.3 2.3-17.9 3.9-3.9 0.6-6.2 4-6.2 7.3v1.7c7.3-4.5 15.2-9 24.1-12.9zm3.9-157.9c5.1-5 5.1-14-1.1-18.5-5.6-4.5-12.9-6.7-20.7-6.7-16.8 0-31.4 11.8-35.3 28 3.4 15.7 13.5 29.7 27.5 37.5 7.8-15.1 17.9-28.5 29.6-40.3zm39.2-47c-10-11.2-25.2-18-40.8-18-18.5 0-34.8 9-44.8 22.4 7.8-3.3 16.2-5.6 25.2-5.6 16.2 0 31.9 7.3 42.5 18.5 3.4 3.9 9.5 5.1 14.6 2.3 6.7-4 8.4-12.9 3.3-19.6zm53.8 101.3c5-17.9-11.2-34.1-29.1-29.1-7.9 1.7-14 8.4-16.3 16.2-5 18 11.2 34.2 29.2 29.2 8.4-2.3 14.5-8.4 16.2-16.3zm49.8 146.7c-8.9 10.1-21.2 16.8-35.8 18.5 6.2 11.8 20.2 20.2 37 20.2 16.2 0 30.8-8.4 36.4-20.2-15.7-1.1-29.2-8.4-37.6-18.5zm39.8-80.6c0-9-3.4-16.2-40.9-16.2-37.5 0-40.9 7.2-40.9 16.2 0 9.5 22.4 23.5 40.9 31.4 18.5-7.9 41.5-21.9 40.9-31.4zm56-66.1c5-17.9-11.2-34.1-29.1-29.1-7.9 1.7-14 8.4-16.3 16.2-5 18 11.2 34.2 29.2 29.2 8.4-2.3 14.5-8.4 16.2-16.3zm26.9-83.4c10.6-11.8 26.3-18.5 42.5-18.5 9 0 17.4 2.2 25.2 5.6-10.6-13.4-26.3-22.4-44.8-22.4-15.6 0-30.2 6.7-40.8 17.9-5.1 5.6-4 15.1 3.3 19.1 5.1 2.8 11.2 2.2 14.6-1.7zm49.3 199.3v-1.1c0-3.9-2.8-6.7-6.2-7.8-5-1.1-10.6-2.3-16.2-3.4 7.8 3.4 15.6 7.9 22.4 12.3zm1.6-129.9c14-8.4 24.1-21.8 27.5-38.1-3.9-15.6-18.5-27.4-35.3-27.4-7.3 0-14.6 2.2-20.7 6.7-6.2 4.5-6.2 13.5-1.1 18.5 11.7 11.8 21.8 25.2 29.6 40.3z"/></svg>